<svg width="152" height="152" viewBox="0 0 152 152" fill="none" xmlns="http://www.w3.org/2000/svg">
<g filter="url(#filter0_d_40_81)">
<rect x="40" y="36" width="72" height="72" rx="36" fill="#FF7A00" shape-rendering="crispEdges"/>
<path d="M83.42 65.7467C84.8881 67.2153 85.8878 69.0862 86.2926 71.1229C86.6975 73.1596 86.4894 75.2706 85.6946 77.1891C84.8997 79.1075 83.5539 80.7472 81.8273 81.9008C80.1006 83.0544 78.0707 83.6701 75.9941 83.6701C73.9176 83.6701 71.8877 83.0544 70.161 81.9008C68.4344 80.7472 67.0886 79.1075 66.2937 77.1891C65.4989 75.2706 65.2908 73.1596 65.6956 71.1229C66.1005 69.0862 67.1002 67.2153 68.5683 65.7467" stroke="white" stroke-width="2" stroke-linecap="round" stroke-linejoin="round"/>
<path d="M76 60.3333V72" stroke="white" stroke-width="2" stroke-linecap="round" stroke-linejoin="round"/>
</g>
<defs>
<filter id="filter0_d_40_81" x="0" y="0" width="152" height="152" filterUnits="userSpaceOnUse" color-interpolation-filters="sRGB">
<feFlood flood-opacity="0" result="BackgroundImageFix"/>
<feColorMatrix in="SourceAlpha" type="matrix" values="0 0 0 0 0 0 0 0 0 0 0 0 0 0 0 0 0 0 127 0" result="hardAlpha"/>
<feOffset dy="4"/>
<feGaussianBlur stdDeviation="20"/>
<feComposite in2="hardAlpha" operator="out"/>
<feColorMatrix type="matrix" values="0 0 0 0 1 0 0 0 0 0.478431 0 0 0 0 0 0 0 0 0.3 0"/>
<feBlend mode="normal" in2="BackgroundImageFix" result="effect1_dropShadow_40_81"/>
<feBlend mode="normal" in="SourceGraphic" in2="effect1_dropShadow_40_81" result="shape"/>
</filter>
</defs>
</svg>
